<?xml version="1.0" encoding="UTF-8"?>
<svg version="1.1" xmlns="http://www.w3.org/2000/svg" width="512" height="512">
<path d="M0 0 C16.37612441 12.48250043 26.69612773 29.73285018 29.51171875 50.28125 C31.40676125 69.46855528 26.21539765 87.60611826 14.79296875 103.12890625 C11.89878309 106.56777119 8.89964625 109.88133635 5.79296875 113.12890625 C8.82116816 114.80177344 11.94155359 115.86636834 15.22558594 116.93017578 C22.84471071 119.42970984 29.95080236 122.50965046 37.04296875 126.25390625 C38.23901733 126.88329102 38.23901733 126.88329102 39.45922852 127.52539062 C42.78349368 129.32255928 45.63163209 130.98898802 48.5 133.4765625 C50.68479333 135.39245167 50.68479333 135.39245167 53.4765625 135.1171875 C54.38535156 134.89417969 55.29414063 134.67117188 56.23046875 134.44140625 C57.13667969 134.23128906 58.04289063 134.02117187 58.9765625 133.8046875 C59.90597656 133.58167969 60.83539063 133.35867188 61.79296875 133.12890625 C79.26879668 129.79908358 95.90129237 133.71915216 110.79296875 143.12890625 C114.43937784 145.87549088 117.64193276 148.83243783 120.79296875 152.12890625 C121.6128125 152.90234375 121.6128125 152.90234375 122.44921875 153.69140625 C132.86873811 164.33261751 137.57218167 180.74680257 138.04296875 195.19140625 C137.76414834 213.54285861 130.69538124 229.09434331 117.859375 242.0859375 C105.8603981 253.1674876 91.92482922 258.28408394 75.79684448 258.26934814 C74.27452986 258.27380483 74.27452986 258.27380483 72.72146142 258.27835155 C69.31674068 258.2870316 65.91205514 258.28854618 62.50732422 258.29003906 C60.06813482 258.29466753 57.62894614 258.29969223 55.1897583 258.30508423 C48.56196598 258.31820287 41.93418097 258.32468818 35.30637884 258.32909489 C31.16900473 258.33185913 27.03163294 258.33609666 22.89426041 258.34059906 C11.44023981 258.35278582 -0.01377892 258.36308838 -11.46780586 258.36647415 C-12.20034316 258.36669372 -12.93288046 258.36691328 -13.68761586 258.3671395 C-14.7890362 258.36746692 -14.7890362 258.36746692 -15.91270745 258.36780095 C-17.40062658 258.36824442 -18.88854571 258.36869098 -20.37646484 258.36914062 C-21.11452287 258.36936205 -21.85258089 258.36958348 -22.61300431 258.36981162 C-34.58669479 258.37376429 -46.56032458 258.39123517 -58.53399159 258.41450015 C-70.82531168 258.43818993 -83.11660126 258.45067481 -95.40794456 258.45184207 C-102.31002288 258.45275983 -109.21202198 258.45853798 -116.11407852 258.47666168 C-122.59995579 258.49363286 -129.08572255 258.49533323 -135.57161713 258.48652267 C-137.95695015 258.48574854 -140.34229105 258.49014405 -142.72760391 258.49998093 C-145.97354351 258.51258636 -149.21893944 258.50688608 -152.46487427 258.49639893 C-153.41768032 258.50445533 -154.37048638 258.51251173 -155.35216534 258.52081227 C-156.2189371 258.51422243 -157.08570885 258.50763258 -157.97874641 258.50084305 C-158.72826203 258.50144014 -159.47777764 258.50203722 -160.25000584 258.50265241 C-162.77942735 258.01959196 -163.66526299 257.16145487 -165.20703125 255.12890625 C-165.5947113 252.18037415 -165.5947113 252.18037415 -165.61108398 248.5246582 C-165.61794724 247.8574173 -165.62481049 247.19017639 -165.63188171 246.50271606 C-165.65021443 244.29065767 -165.64629648 242.07930586 -165.640625 239.8671875 C-165.6451904 238.31796541 -165.65049704 236.76874535 -165.6565094 235.2195282 C-165.66545809 231.96194276 -165.66300537 228.70460208 -165.65307617 225.44702148 C-165.64170358 221.31746061 -165.66160562 217.18876986 -165.69099331 213.05932331 C-165.7095703 209.85117901 -165.70901876 206.6432338 -165.70335579 203.43504906 C-165.70320453 201.91595444 -165.70908305 200.39684456 -165.72164726 198.8778019 C-165.88273735 176.16726768 -158.83001973 158.21136548 -143.14453125 141.62890625 C-137.09957885 135.7081652 -130.51585461 131.34680998 -123.20703125 127.12890625 C-122.27632812 126.58621094 -121.345625 126.04351562 -120.38671875 125.484375 C-110.88850519 120.35642209 -100.46483798 117.36077846 -90.20703125 114.12890625 C-90.59375 113.68305176 -90.98046875 113.23719727 -91.37890625 112.77783203 C-106.36516597 95.41287453 -115.64357668 76.51267351 -114.20703125 53.12890625 C-111.73440151 32.53064329 -102.96789889 15.8289175 -87.20703125 2.12890625 C-61.30203388 -17.38543098 -26.85932201 -17.94497271 0 0 Z " fill="#010101" transform="translate(298.20703125,249.87109375)"/>
<path d="M0 0 C1.36898437 0.62841797 1.36898437 0.62841797 2.765625 1.26953125 C10.72543379 5.21532218 16.77308907 10.79932605 23 17 C23.7321875 17.69738281 24.464375 18.39476562 25.21875 19.11328125 C39.65315134 33.86271913 45.25906348 54.85065524 45.2487793 74.94799805 C44.95293358 95.97007078 35.90075102 115.46798849 21.56640625 130.625 C3.79648504 147.06961507 -17.45811618 154.13385172 -41.44140625 153.375 C-61.93660449 152.25980472 -81.870928 142.18264405 -96.02734375 127.38671875 C-111.77271625 108.33637697 -118.02881746 86.4499676 -116 62 C-114.14812387 46.31370895 -107.3212619 31.88742353 -97 20 C-96.236875 18.989375 -95.47375 17.97875 -94.6875 16.9375 C-70.8025358 -9.16932134 -31.31850673 -15.09690449 0 0 Z " fill="#07A486" transform="translate(459,157)"/>
<path d="M0 0 C13.36018158 4.36000683 31.28402798 3.32087663 43.98046875 -3.02734375 C61.93360663 -4.54879611 81.78664945 5.17897316 96.98046875 13.97265625 C96.98046875 17.97265625 96.98046875 17.97265625 95.07421875 19.9453125 C94.21828125 20.63496094 93.36234375 21.32460938 92.48046875 22.03515625 C81.38000114 31.64404759 73.1718879 45.12410885 71.79150391 60.01049805 C71.71352954 62.08575842 71.7016786 64.14616689 71.73046875 66.22265625 C71.7449707 67.3372522 71.7449707 67.3372522 71.75976562 68.47436523 C72.13162684 85.68596166 77.98255883 100.38225695 89.98046875 112.97265625 C91.9218733 114.74883488 93.89876416 116.3593352 95.98046875 117.97265625 C95.98046875 118.30265625 95.98046875 118.63265625 95.98046875 118.97265625 C33.28046875 118.97265625 -29.41953125 118.97265625 -94.01953125 118.97265625 C-94.01953125 43.22446585 -94.01953125 43.22446585 -76.7265625 25.65234375 C-75.83324219 24.76804687 -74.93992188 23.88375 -74.01953125 22.97265625 C-73.38402344 22.31523437 -72.74851563 21.6578125 -72.09375 20.98046875 C-54.66715005 4.21074729 -23.13937107 -7.86344035 0 0 Z " fill="#73C2FB" transform="translate(239.01953125,377.02734375)"/>
<path d="M0 0 C1.03318359 -0.020625 2.06636719 -0.04125 3.13085938 -0.0625 C8.67231802 -0.09093596 13.01327902 -0.09846948 17.6875 3.25 C19.078125 5.1171875 19.078125 5.1171875 19.9375 7.125 C20.25332031 7.82625 20.56914063 8.5275 20.89453125 9.25 C21.53007417 10.85294569 22.09041897 12.48561817 22.625 14.125 C23.54768023 16.44869125 23.54768023 16.44869125 26 17.625 C30.25259414 18.61397538 32.70564873 17.83018484 36.4375 15.625 C40.91789577 13.72944795 44.09716711 13.55998998 48.6875 15.25 C55.27896096 19.89627447 63.0226255 26.920251 66.6875 34.25 C67.27414765 38.97203274 67.33315315 42.76660304 64.5625 46.75 C62.23239878 51.09952228 62.79726186 52.95783347 64.109375 57.52734375 C64.30015625 58.09582031 64.4909375 58.66429687 64.6875 59.25 C65.88375 59.3325 67.08 59.415 68.3125 59.5 C72.61039756 60.04104739 75.32169738 61.44516448 78.6875 64.25 C81.93553542 69.28921609 81.09657739 75.34573671 81.125 81.125 C81.15787109 82.29675781 81.19074219 83.46851563 81.22460938 84.67578125 C81.28479692 94.31673169 81.28479692 94.31673169 78.453125 97.953125 C75.88651655 100.08471507 74.18104077 101.25007877 71 102.125 C70.23300781 102.34929687 69.46601563 102.57359375 68.67578125 102.8046875 C66.6875 103.25 66.6875 103.25 64.6875 103.25 C62.74331797 108.22128037 62.74331797 108.22128037 63.4453125 113.28125 C64.19599926 114.60413855 64.95128674 115.92442597 65.7109375 117.2421875 C67.44195489 120.80115925 67.19356435 123.32800126 66.6875 127.25 C63.82828644 132.21745296 60.17083296 136.07127896 56.125 140.0625 C55.54814453 140.64708984 54.97128906 141.23167969 54.37695312 141.83398438 C53.81814453 142.39021484 53.25933594 142.94644531 52.68359375 143.51953125 C52.18013428 144.02073486 51.6766748 144.52193848 51.15795898 145.03833008 C48.12204192 147.53994993 44.66341066 147.56554097 40.86328125 147.55859375 C38.37908436 147.20625703 36.84332454 146.38787946 34.6875 145.125 C31.47623691 143.30273563 29.77444342 143.07800398 26.1875 144 C24.455 144.61875 24.455 144.61875 22.6875 145.25 C22.54054688 145.98605469 22.39359375 146.72210938 22.2421875 147.48046875 C22.01789063 148.45628906 21.79359375 149.43210937 21.5625 150.4375 C21.35367188 151.40042969 21.14484375 152.36335937 20.9296875 153.35546875 C19.28119631 157.19676426 17.47332231 159.52574212 13.6875 161.25 C9.33784393 161.94866304 5.08346124 161.90266107 0.6875 161.8125 C-0.47523437 161.82345703 -1.63796875 161.83441406 -2.8359375 161.84570312 C-13.82608561 161.75139407 -13.82608561 161.75139407 -18.3125 157.25 C-19.74609375 154.3046875 -19.74609375 154.3046875 -20.75 151.125 C-22.52847721 146.2543064 -22.52847721 146.2543064 -26.6875 143.25 C-30.58721472 143.25 -32.23046834 144.16237683 -35.42578125 146.2734375 C-38.86918403 148.05573708 -42.57881823 148.10918904 -46.3125 147.25 C-51.0285507 144.53779222 -54.75852212 141.14037221 -58.5625 137.3125 C-59.09101562 136.80009766 -59.61953125 136.28769531 -60.1640625 135.75976562 C-63.78283858 132.1455819 -66.20704124 129.18275783 -66.39453125 123.96875 C-65.82023206 119.24118562 -64.81749517 116.34908301 -62.3125 112.25 C-62.55945343 108.87496985 -63.46226556 106.07877788 -65.3125 103.25 C-68.02382966 102.08800157 -70.74566733 101.35885112 -73.5859375 100.5703125 C-77.44065964 98.7036992 -78.50347291 97.15479973 -80.3125 93.25 C-80.8544042 89.23619722 -80.82570253 85.29398015 -80.75 81.25 C-80.75708984 80.18265625 -80.76417969 79.1153125 -80.77148438 78.015625 C-80.68946708 67.87071611 -80.68946708 67.87071611 -77.3125 63.25 C-75.19140625 61.82421875 -75.19140625 61.82421875 -72.875 60.9375 C-72.11316406 60.63199219 -71.35132813 60.32648438 -70.56640625 60.01171875 C-68.3125 59.25 -68.3125 59.25 -66.109375 58.78515625 C-64.05387135 58.39599394 -64.05387135 58.39599394 -63 56 C-61.9232792 51.6931168 -62.77671142 49.23585099 -64.875 45.375 C-66.58468896 41.65828486 -66.75456372 39.30225078 -66.3125 35.25 C-63.88921473 30.23660909 -60.02532108 26.45204194 -56.1875 22.5 C-55.56101562 21.81550781 -54.93453125 21.13101563 -54.2890625 20.42578125 C-50.2195091 16.248699 -47.2142987 14.29793055 -41.30273438 14.09277344 C-38.81957026 14.28894097 -37.19345489 14.86189782 -35.125 16.25 C-32.21616435 17.93619756 -31.52605371 18.26208795 -28 18.0625 C-26.09536539 17.48668024 -24.20016556 16.87922185 -22.3125 16.25 C-21.46684569 14.08193137 -21.46684569 14.08193137 -20.9375 11.5 C-19.67412633 6.85211478 -18.21089441 4.27125567 -14.3125 1.25 C-9.62655788 -0.31198071 -4.90808823 0.02422252 0 0 Z " fill="#08A688" transform="translate(88.3125,148.75)"/>
<path d="M0 0 C0.73734375 0.47953125 1.4746875 0.9590625 2.234375 1.453125 C14.20557586 9.95680561 21.47524633 22.96098112 25 37 C27.64413868 57.5347222 22.50196694 71.80668536 11.1328125 88.7890625 C5.10335356 97.97557719 0.98769032 106.62931389 0.7890625 117.74609375 C0.76070313 118.83083984 0.73234375 119.91558594 0.703125 121.03320312 C0.65113507 123.29866414 0.60683603 125.56431499 0.5703125 127.83007812 C0.27419214 138.22513646 0.27419214 138.22513646 -3 143 C-3.70125 143.5775 -4.4025 144.155 -5.125 144.75 C-7.33253306 147.39903968 -7.25818208 148.38906978 -7.4375 151.75 C-7.78273527 157.0619154 -9.2455181 161.13850199 -13 165 C-19.5709379 168.83517545 -25.44455742 168.51533631 -32.875 168.5 C-34.11636719 168.52835938 -35.35773438 168.55671875 -36.63671875 168.5859375 C-43.96074727 168.60153713 -49.47267637 168.12883998 -55 163 C-57.64281751 159.33415635 -58.08658062 156.44799376 -58.3125 152.0625 C-58.64404024 147.17043963 -60.16592446 144.85689602 -63.625 141.47265625 C-66.32057336 138.58563592 -66.1316537 135.43440794 -66.17578125 131.6953125 C-66.53560333 113.20130774 -69.22355625 100.9369311 -79.24609375 85.359375 C-89.19812571 69.830622 -94.57231665 54.45948248 -90.7890625 35.87109375 C-88.36441461 27.04873631 -84.48082657 19.30309627 -79 12 C-78.39414063 11.18402344 -77.78828125 10.36804688 -77.1640625 9.52734375 C-58.172251 -12.65262384 -23.84965921 -15.72310866 0 0 Z " fill="#030200" transform="translate(289,43)"/>
<path d="M0 0 C0.95495361 0.00572021 1.90990723 0.01144043 2.89379883 0.01733398 C20.06267946 0.44443488 34.15435649 7.2382228 46.01953125 19.70703125 C57.5191876 33.3426105 61.73249196 47.65058066 60.60253906 65.18261719 C58.99251486 81.57998812 51.18363943 94.45014865 39.375 105.5 C25.65635481 116.35976689 9.71510758 120.07124618 -7.44140625 118.19140625 C-23.087319 115.35354407 -37.04918742 107.83912127 -46.53125 94.8984375 C-56.65164044 79.67496884 -60.04483939 62.86588196 -57.0078125 44.8359375 C-52.6003744 28.80534406 -41.85983792 15.3202618 -27.5625 7 C-18.72997266 2.04286219 -10.12224106 -0.07136609 0 0 Z " fill="#F8C8BF" transform="translate(254.625,249.5)"/>
<path d="M0 0 C1.03318359 -0.020625 2.06636719 -0.04125 3.13085938 -0.0625 C8.67231802 -0.09093596 13.01327902 -0.09846948 17.6875 3.25 C19.078125 5.1171875 19.078125 5.1171875 19.9375 7.125 C20.25332031 7.82625 20.56914063 8.5275 20.89453125 9.25 C21.53007417 10.85294569 22.09041897 12.48561817 22.625 14.125 C23.54768023 16.44869125 23.54768023 16.44869125 26 17.625 C30.25259414 18.61397538 32.70564873 17.83018484 36.4375 15.625 C40.91789577 13.72944795 44.09716711 13.55998998 48.6875 15.25 C55.27896096 19.89627447 63.0226255 26.920251 66.6875 34.25 C67.27414765 38.97203274 67.33315315 42.76660304 64.5625 46.75 C62.23239878 51.09952228 62.79726186 52.95783347 64.109375 57.52734375 C64.30015625 58.09582031 64.4909375 58.66429687 64.6875 59.25 C65.88375 59.3325 67.08 59.415 68.3125 59.5 C72.61039756 60.04104739 75.32169738 61.44516448 78.6875 64.25 C81.93553542 69.28921609 81.09657739 75.34573671 81.125 81.125 C81.15787109 82.29675781 81.19074219 83.46851563 81.22460938 84.67578125 C81.28479692 94.31673169 81.28479692 94.31673169 78.453125 97.953125 C75.88651655 100.08471507 74.18104077 101.25007877 71 102.125 C70.23300781 102.34929687 69.46601563 102.57359375 68.67578125 102.8046875 C66.6875 103.25 66.6875 103.25 64.6875 103.25 C62.74331797 108.22128037 62.74331797 108.22128037 63.4453125 113.28125 C64.19599926 114.60413855 64.95128674 115.92442597 65.7109375 117.2421875 C67.44195489 120.80115925 67.19356435 123.32800126 66.6875 127.25 C63.82828644 132.21745296 60.17083296 136.07127896 56.125 140.0625 C55.54814453 140.64708984 54.97128906 141.23167969 54.37695312 141.83398438 C53.81814453 142.39021484 53.25933594 142.94644531 52.68359375 143.51953125 C52.18013428 144.02073486 51.6766748 144.52193848 51.15795898 145.03833008 C48.12204192 147.53994993 44.66341066 147.56554097 40.86328125 147.55859375 C38.37908436 147.20625703 36.84332454 146.38787946 34.6875 145.125 C31.47623691 143.30273563 29.77444342 143.07800398 26.1875 144 C24.455 144.61875 24.455 144.61875 22.6875 145.25 C22.54054688 145.98605469 22.39359375 146.72210938 22.2421875 147.48046875 C22.01789063 148.45628906 21.79359375 149.43210937 21.5625 150.4375 C21.35367188 151.40042969 21.14484375 152.36335937 20.9296875 153.35546875 C19.28119631 157.19676426 17.47332231 159.52574212 13.6875 161.25 C9.33784393 161.94866304 5.08346124 161.90266107 0.6875 161.8125 C-0.47523437 161.82345703 -1.63796875 161.83441406 -2.8359375 161.84570312 C-13.82608561 161.75139407 -13.82608561 161.75139407 -18.3125 157.25 C-19.74609375 154.3046875 -19.74609375 154.3046875 -20.75 151.125 C-22.52847721 146.2543064 -22.52847721 146.2543064 -26.6875 143.25 C-30.58721472 143.25 -32.23046834 144.16237683 -35.42578125 146.2734375 C-38.86918403 148.05573708 -42.57881823 148.10918904 -46.3125 147.25 C-51.0285507 144.53779222 -54.75852212 141.14037221 -58.5625 137.3125 C-59.09101562 136.80009766 -59.61953125 136.28769531 -60.1640625 135.75976562 C-63.78283858 132.1455819 -66.20704124 129.18275783 -66.39453125 123.96875 C-65.82023206 119.24118562 -64.81749517 116.34908301 -62.3125 112.25 C-62.55945343 108.87496985 -63.46226556 106.07877788 -65.3125 103.25 C-68.02382966 102.08800157 -70.74566733 101.35885112 -73.5859375 100.5703125 C-77.44065964 98.7036992 -78.50347291 97.15479973 -80.3125 93.25 C-80.8544042 89.23619722 -80.82570253 85.29398015 -80.75 81.25 C-80.75708984 80.18265625 -80.76417969 79.1153125 -80.77148438 78.015625 C-80.68946708 67.87071611 -80.68946708 67.87071611 -77.3125 63.25 C-75.19140625 61.82421875 -75.19140625 61.82421875 -72.875 60.9375 C-72.11316406 60.63199219 -71.35132813 60.32648438 -70.56640625 60.01171875 C-68.3125 59.25 -68.3125 59.25 -66.109375 58.78515625 C-64.05387135 58.39599394 -64.05387135 58.39599394 -63 56 C-61.9232792 51.6931168 -62.77671142 49.23585099 -64.875 45.375 C-66.58468896 41.65828486 -66.75456372 39.30225078 -66.3125 35.25 C-63.88921473 30.23660909 -60.02532108 26.45204194 -56.1875 22.5 C-55.56101562 21.81550781 -54.93453125 21.13101563 -54.2890625 20.42578125 C-50.2195091 16.248699 -47.2142987 14.29793055 -41.30273438 14.09277344 C-38.81957026 14.28894097 -37.19345489 14.86189782 -35.125 16.25 C-32.21616435 17.93619756 -31.52605371 18.26208795 -28 18.0625 C-26.09536539 17.48668024 -24.20016556 16.87922185 -22.3125 16.25 C-21.46684569 14.08193137 -21.46684569 14.08193137 -20.9375 11.5 C-19.67412633 6.85211478 -18.21089441 4.27125567 -14.3125 1.25 C-9.62655788 -0.31198071 -4.90808823 0.02422252 0 0 Z M-8.3125 13.25 C-8.42722656 14.03503906 -8.54195312 14.82007813 -8.66015625 15.62890625 C-10.4967519 23.8082803 -10.4967519 23.8082803 -13.89355469 26.50537109 C-19.2525749 29.69445523 -25.9699533 33.18400516 -32.3125 32.25 C-34.48525259 31.04426393 -36.36029916 29.6360038 -38.34765625 28.1484375 C-40.27403668 27.00955347 -40.27403668 27.00955347 -42.26171875 27.8125 C-44.81697127 29.60361034 -46.88853871 31.63709867 -49.0625 33.875 C-50.26132812 35.10089844 -50.26132812 35.10089844 -51.484375 36.3515625 C-52.08765625 36.97804688 -52.6909375 37.60453125 -53.3125 38.25 C-52.27157811 40.98639727 -51.32900793 43.22676661 -49.625 45.625 C-47.43298187 50.00903626 -48.97211987 54.08355899 -50.30078125 58.63671875 C-53.82042717 67.40987747 -53.82042717 67.40987747 -58.37890625 69.9765625 C-61.6875 71.0625 -61.6875 71.0625 -67.3125 72.25 C-67.3125 77.86 -67.3125 83.47 -67.3125 89.25 C-61.76245807 91.20819323 -61.76245807 91.20819323 -57.75 92.0625 C-54.78785312 93.29070724 -54.26119107 94.35301355 -52.79296875 97.30078125 C-51.54429653 100.59338955 -50.42581751 103.91004748 -49.3125 107.25 C-48.8175 107.745 -48.8175 107.745 -48.3125 108.25 C-48.56404055 112.44234254 -49.26066093 115.43475004 -51.5 118.9375 C-52.098125 120.030625 -52.69625 121.12375 -53.3125 122.25 C-52.17493501 125.64898936 -49.94888261 128.00124037 -47.5 130.5625 C-46.83355469 131.28050781 -46.16710937 131.99851562 -45.48046875 132.73828125 C-43.39400943 134.5285685 -43.39400943 134.5285685 -40.69921875 134.078125 C-38.21661763 133.32609945 -38.21661763 133.32609945 -35.9375 131.6875 C-31.53644727 129.2773997 -27.47993957 129.97300188 -22.70703125 131.10546875 C-13.18581147 134.64607502 -13.18581147 134.64607502 -10.51953125 139.54296875 C-9.4375 143.125 -9.4375 143.125 -8.3125 149.25 C-2.7025 149.25 2.9075 149.25 8.6875 149.25 C9.30625 147.31125 9.925 145.3725 10.5625 143.375 C12.4375 137.5 12.4375 137.5 14.6875 135.25 C16.33305274 134.51339278 18.00345365 133.83125609 19.6875 133.1875 C23.23705475 131.83079164 23.23705475 131.83079164 26.6875 130.25 C30.99624549 129.82757397 33.74043103 130.04089439 37.375 132.3125 C40.32376534 134.44862991 40.32376534 134.44862991 42.59375 134.13671875 C45.46840003 132.91928301 47.27025462 131.17571278 49.5 129 C50.31082031 128.23171875 51.12164062 127.4634375 51.95703125 126.671875 C53.97078277 124.38574422 53.97078277 124.38574422 53.546875 121.6015625 C52.75420808 119.15357282 52.75420808 119.15357282 51.125 116.875 C49.13715022 113.24501345 49.16219859 111.38674863 49.6875 107.25 C53.10013857 96.42224553 53.10013857 96.42224553 57.0625 93.49609375 C60.85768338 91.69451116 64.67912794 90.50635542 68.6875 89.25 C68.6875 83.64 68.6875 78.03 68.6875 72.25 C66.66625 71.87875 64.645 71.5075 62.5625 71.125 C58.11752993 69.78229912 56.180825 68.95362341 53.48828125 65.11328125 C50.7049467 59.26085857 49.15952669 53.77202321 49.6875 47.25 C50.59765625 45.17578125 50.59765625 45.17578125 51.75 43.5625 C53.87978083 40.61368315 53.87978083 40.61368315 53.59375 38.33984375 C52.32581602 35.41594426 50.41775285 33.69587597 48.125 31.5 C47.29871094 30.70078125 46.47242188 29.9015625 45.62109375 29.078125 C44.98300781 28.47484375 44.34492188 27.8715625 43.6875 27.25 C40.54385556 28.23750971 37.97216573 29.05292372 35.25 30.9375 C31.73266492 32.73906187 29.33214576 32.33814963 25.6875 31.25 C14.319787 27.19843049 14.319787 27.19843049 11.6875 23.25 C11.27742103 21.72225481 10.92597459 20.1779277 10.625 18.625 C10.21655984 15.65230348 10.21655984 15.65230348 8.6875 13.25 C5.82482433 13.17674832 2.986781 13.15761795 0.125 13.1875 C-0.68130859 13.19201172 -1.48761719 13.19652344 -2.31835938 13.20117188 C-4.31643756 13.21299482 -6.31447783 13.23093086 -8.3125 13.25 Z " fill="#000101" transform="translate(88.3125,148.75)"/>
<path d="M0 0 C1.36898437 0.62841797 1.36898437 0.62841797 2.765625 1.26953125 C10.72543379 5.21532218 16.77308907 10.79932605 23 17 C23.7321875 17.69738281 24.464375 18.39476562 25.21875 19.11328125 C39.65315134 33.86271913 45.25906348 54.85065524 45.2487793 74.94799805 C44.95293358 95.97007078 35.90075102 115.46798849 21.56640625 130.625 C3.79648504 147.06961507 -17.45811618 154.13385172 -41.44140625 153.375 C-61.93660449 152.25980472 -81.870928 142.18264405 -96.02734375 127.38671875 C-111.77271625 108.33637697 -118.02881746 86.4499676 -116 62 C-114.14812387 46.31370895 -107.3212619 31.88742353 -97 20 C-96.236875 18.989375 -95.47375 17.97875 -94.6875 16.9375 C-70.8025358 -9.16932134 -31.31850673 -15.09690449 0 0 Z M-88.6015625 28.91796875 C-100.54038941 44.03116602 -105.3856676 60.94232501 -104 80 C-101.38764936 98.06369587 -92.86620429 114.12338286 -79 126 C-63.33076649 137.63287524 -45.37939281 143.42785464 -25.90283203 140.70703125 C-6.37573845 137.25534258 9.98086819 126.73781667 21.65234375 110.734375 C31.85195814 95.05863177 34.98596932 74.24410256 31.3515625 55.984375 C30.44478941 52.83779489 29.36616476 49.97484399 28 47 C27.50242187 45.906875 27.00484375 44.81375 26.4921875 43.6875 C22.68952596 36.04680332 18.04781849 29.98600092 12 24 C11.33613281 23.30261719 10.67226563 22.60523438 9.98828125 21.88671875 C-3.30894232 8.84277563 -20.84319511 4.49475214 -38.92626953 4.65014648 C-58.90775282 5.157629 -75.45365021 14.17098605 -88.6015625 28.91796875 Z " fill="#000101" transform="translate(459,157)"/>
<path d="M0 0 C6.61200278 5.11471954 12.56592449 10.87380722 17 18 C16.67 18.66 16.34 19.32 16 20 C15.24918655 19.93752075 14.49837311 19.8750415 13.72480774 19.81066895 C10.43668789 20.03914128 9.67467954 20.71384016 7.40307617 23.02929688 C6.74276901 23.68998169 6.08246185 24.3506665 5.40214539 25.03137207 C4.35810295 26.11412415 4.35810295 26.11412415 3.29296875 27.21875 C2.56757401 27.95121948 1.84217926 28.68368896 1.09480286 29.43835449 C-1.21962073 31.78076867 -3.51606108 34.13996444 -5.8125 36.5 C-7.37840361 38.09098007 -8.94544773 39.68083848 -10.51367188 41.26953125 C-14.35577732 45.16676817 -18.1832594 49.0779275 -22 53 C-26.30238289 51.56587237 -27.43665297 48.31827868 -29.5625 44.5625 C-30.35288192 43.18731208 -31.14574944 41.81354897 -31.94140625 40.44140625 C-32.28888916 39.82982666 -32.63637207 39.21824707 -32.99438477 38.58813477 C-34.03065971 36.82325525 -34.03065971 36.82325525 -36 35 C-38.5 34.66666667 -38.5 34.66666667 -41 35 C-43.2743818 36.85927275 -43.2743818 36.85927275 -43.31420898 39.76245117 C-42.94988778 43.5163467 -41.90539752 45.57704075 -39.97265625 48.80078125 C-39.34552734 49.85974609 -38.71839844 50.91871094 -38.07226562 52.00976562 C-37.40904297 53.09966797 -36.74582031 54.18957031 -36.0625 55.3125 C-35.40314453 56.42173828 -34.74378906 57.53097656 -34.06445312 58.67382812 C-31.39172929 63.60149021 -31.39172929 63.60149021 -28 68 C-25.29987653 68.67350769 -25.29987653 68.67350769 -22 68 C-20.10189761 66.67545626 -20.10189761 66.67545626 -18.24902344 64.92651367 C-17.54668579 64.28902191 -16.84434814 63.65153015 -16.12072754 62.99472046 C-12.87960946 59.9461796 -9.71133091 56.8348925 -6.578125 53.67578125 C-5.57721832 52.67275215 -5.57721832 52.67275215 -4.55609131 51.64945984 C-2.45167058 49.53950603 -0.35077275 47.42608528 1.75 45.3125 C3.17294273 43.88453206 4.59611795 42.45679575 6.01953125 41.02929688 C8.62350864 38.41719854 11.22617743 35.80381258 13.82714844 33.1887207 C16.21430604 30.78867018 18.60470826 28.39193803 21 26 C26.13642374 40.49704866 26.42197734 57.33409974 19.91796875 71.46484375 C16.16871087 78.73462494 11.07206696 85.51720536 5 91 C4.34 91 3.68 91 3 91 C3 91.66 3 92.32 3 93 C-10.43750646 97.39134198 -23.6555526 95.6722237 -36.15625 89.421875 C-50.18364261 81.71375332 -57.27591818 71.16551395 -62 56 C-62.19335938 55.39929688 -62.38671875 54.79859375 -62.5859375 54.1796875 C-65.31862164 39.79442569 -62.05776479 26.53161585 -53.90234375 14.53125 C-40.89619707 -2.77467002 -19.36623405 -12.89435482 0 0 Z " fill="#FCC537" transform="translate(385,401)"/>
<path d="M0 0 C0.66 2.64 1.32 5.28 2 8 C5.41656024 8.16677282 5.41656024 8.16677282 9 8 C11.5654594 5.4345406 11.54046087 3.52313332 12 0 C21.92019636 0.38154601 31.00981365 5.19413702 38.1875 11.953125 C43.99697717 18.51382767 49.62799006 27.04784094 50.1875 36 C50.125625 36.66 50.06375 37.32 50 38 C48.865625 38.309375 47.73125 38.61875 46.5625 38.9375 C43.21224901 39.62924531 43.21224901 39.62924531 42 41 C41.95907063 43.33297433 41.95758277 45.66705225 42 48 C44.64 48.66 47.28 49.32 50 50 C48.94631783 60.47013297 43.86511345 70.34014789 36.03125 77.390625 C29.241676 82.7700567 21.02563612 87.87344866 12 87 C11.34 84.69 10.68 82.38 10 80 C6.58343976 79.83322718 6.58343976 79.83322718 3 80 C0.64046906 82.35953094 0.50858587 83.77895617 0 87 C-11.61488175 86.6191842 -19.89615061 81.10184076 -27.765625 72.78125 C-33.21533704 65.99769236 -36.66431118 58.72790922 -37 50 C-36.05125 49.71125 -35.1025 49.4225 -34.125 49.125 C-30.94788422 48.23174891 -30.94788422 48.23174891 -29 46 C-29.32198966 42.90073181 -29.32198966 42.90073181 -30 40 C-32.31 39.34 -34.62 38.68 -37 38 C-36.41128957 25.83331781 -30.89686099 17.17663891 -22 9 C-15.57224541 4.27370986 -8.11652713 0 0 0 Z " fill="#E8E3EC" transform="translate(417,186)"/>
<path d="M0 0 C13.38495126 7.98696544 23.33366961 19.87302591 27.73925781 35.00878906 C31.85695467 51.8748754 28.09744407 67.35714714 19.22753906 82.00878906 C10.16828924 94.07694592 -2.59068237 102.99240276 -17.58496094 105.69628906 C-33.78970741 107.21252265 -48.48655606 104.86877298 -61.67089844 94.79394531 C-64.14718967 92.61882464 -66.47681199 90.37258343 -68.77246094 88.00878906 C-69.61357422 87.19861328 -69.61357422 87.19861328 -70.47167969 86.37207031 C-81.33247884 75.05517461 -84.33062994 59.92157899 -84.08496094 44.78222656 C-82.86269494 30.02336458 -75.39567011 17.04943515 -64.77246094 7.00878906 C-58.95958284 2.23784195 -52.81151128 -1.35780735 -45.77246094 -3.99121094 C-44.92039062 -4.34699219 -44.06832031 -4.70277344 -43.19042969 -5.06933594 C-29.33985832 -8.8050329 -12.46155813 -6.96886033 0 0 Z M-58.93652344 18.04394531 C-66.19746242 25.75359401 -70.25846701 33.38624779 -70.77246094 44.00878906 C-68.46246094 44.66878906 -66.15246094 45.32878906 -63.77246094 46.00878906 C-63.08496094 48.82128906 -63.08496094 48.82128906 -62.77246094 52.00878906 C-64.37007284 54.58271936 -65.52300694 54.94497525 -68.45996094 55.69628906 C-69.60464844 55.85097656 -69.60464844 55.85097656 -70.77246094 56.00878906 C-70.33799069 67.30501543 -64.60379293 76.23785112 -56.48339844 83.80957031 C-49.4068676 89.55032948 -42.90576913 92.70933633 -33.77246094 93.00878906 C-33.46308594 92.03941406 -33.15371094 91.07003906 -32.83496094 90.07128906 C-31.77246094 87.00878906 -31.77246094 87.00878906 -30.77246094 86.00878906 C-28.43948661 85.96785969 -26.10540869 85.96637183 -23.77246094 86.00878906 C-23.11246094 88.31878906 -22.45246094 90.62878906 -21.77246094 93.00878906 C-9.60577875 92.42007863 -0.94909985 86.90565005 7.22753906 78.00878906 C11.9538292 71.58103447 16.22753906 64.12531619 16.22753906 56.00878906 C13.58753906 55.34878906 10.94753906 54.68878906 8.22753906 54.00878906 C8.10253906 50.63378906 8.10253906 50.63378906 8.22753906 47.00878906 C10.79299847 44.44332966 12.70440574 44.46832819 16.22753906 44.00878906 C15.84599305 34.08859271 11.03340204 24.99897541 4.27441406 17.82128906 C-2.28628861 12.01181189 -10.82030187 6.380799 -19.77246094 5.82128906 C-20.43246094 5.88316406 -21.09246094 5.94503906 -21.77246094 6.00878906 C-22.08183594 7.14316406 -22.39121094 8.27753906 -22.70996094 9.44628906 C-23.77246094 13.00878906 -23.77246094 13.00878906 -24.77246094 14.00878906 C-27.10543527 14.04971844 -29.43951318 14.05120629 -31.77246094 14.00878906 C-32.43246094 11.36878906 -33.09246094 8.72878906 -33.77246094 6.00878906 C-43.21600554 6.00878906 -52.21009057 11.71818444 -58.93652344 18.04394531 Z " fill="#020404" transform="translate(450.7724609375,179.9912109375)"/>
<path d="M0 0 C9.6665835 6.57590714 16.52358733 17.62029414 19 29 C20.57266792 45.65598297 15.61075918 57.54047047 6.61791992 71.14916992 C0.99288726 79.67106532 -2.81308018 88.28203822 -6 98 C-7.98 98 -9.96 98 -12 98 C-12 84.14 -12 70.28 -12 56 C-7.38 53.69 -2.76 51.38 2 49 C7.56619719 42.32056337 9.45918928 39.88711447 9.3359375 31.54296875 C8.82127697 27.64710824 7.16406237 25.24609355 5 22 C5 21.34 5 20.68 5 20 C-0.6572873 17.07381691 -5.65436427 16.09638147 -12 17 C-21.40242894 24.00180878 -22.33562299 35.2169617 -24 46 C-25.98 46 -27.96 46 -30 46 C-30.14695312 44.89205078 -30.14695312 44.89205078 -30.296875 43.76171875 C-32.39554668 29.25593365 -32.39554668 29.25593365 -41 18 C-44.69994111 16.15002945 -48.9534753 16.67346082 -53 17 C-57.78436067 18.59478689 -59.82722742 22.13574473 -62.04296875 26.46875 C-63.94957981 31.5115417 -64.1545572 36.26205007 -62.04296875 41.26953125 C-57.07266698 49.77426984 -51.27512375 51.78403466 -42 56 C-42 69.86 -42 83.72 -42 98 C-43.98 98 -45.96 98 -48 98 C-48.52787109 96.47632813 -48.52787109 96.47632813 -49.06640625 94.921875 C-52.62704421 84.89557843 -57.00165966 76.08990913 -62.859375 67.16796875 C-71.26872007 54.32035822 -75.556308 41.25795886 -72.3515625 25.890625 C-67.82417476 12.5019399 -59.29189897 2.18657091 -46.75 -4.4375 C-31.1401634 -11.84859215 -14.25344023 -8.41186637 0 0 Z " fill="#FBC437" transform="translate(283,54)"/>
<path d="M0 0 C7.62985735 4.56685665 12.56518212 10.9765485 15.26953125 19.40234375 C16.93137473 28.03173281 16.71499119 36.83127219 12.16796875 44.46875 C11.68199219 45.17644531 11.19601563 45.88414062 10.6953125 46.61328125 C10.26089844 47.26941406 9.82648438 47.92554688 9.37890625 48.6015625 C4.93677333 54.51175074 -1.42358854 57.3195816 -8.3046875 59.61328125 C-19.37351104 60.49275645 -27.58742714 59.99645157 -36.546875 52.81640625 C-44.01461653 45.97781511 -47.13172548 37.96374279 -47.6171875 27.98828125 C-47.46723 18.81360903 -44.07241123 11.17874139 -37.6875 4.62890625 C-26.40788552 -4.91253813 -13.31249433 -6.30124732 0 0 Z " fill="#020303" transform="translate(104.3046875,201.38671875)"/>
<path d="M0 0 C12.79441304 -0.45694332 23.69901182 3.93765489 33.375 12.375 C40.0831991 18.8036908 44.71071931 25.29835744 48 34 C48.3609375 34.90878906 48.721875 35.81757813 49.09375 36.75390625 C50.18042018 40.64624641 50.30163658 44.30621381 50.25 48.3125 C50.24323242 49.06724609 50.23646484 49.82199219 50.22949219 50.59960938 C49.97721824 64.19893538 45.16005169 76.4187688 35.7421875 86.390625 C30.5218186 91.33279242 24.94116621 95.78392125 18 98 C17.01 97.67 16.02 97.34 15 97 C15.969375 96.29875 16.93875 95.5975 17.9375 94.875 C26.9165985 87.13691512 34.30296883 74.20905219 35.19824219 62.38085938 C35.3405057 59.355994 35.4085293 56.34053641 35.4375 53.3125 C35.4530896 51.85082397 35.4530896 51.85082397 35.46899414 50.35961914 C35.39141732 44.06733655 34.37773605 38.8288501 32 33 C31.5352124 33.5355249 31.0704248 34.0710498 30.59155273 34.62280273 C23.75612647 42.36452226 16.49761905 49.65484325 9.1862793 56.9440918 C7.03901541 59.0859252 4.8972385 61.23314409 2.75585938 63.38085938 C1.39094611 64.74511301 0.02572332 66.10905705 -1.33984375 67.47265625 C-1.97937485 68.11421158 -2.61890594 68.75576691 -3.27781677 69.41676331 C-3.8692598 70.00505417 -4.46070282 70.59334503 -5.07006836 71.19946289 C-5.58919296 71.7177919 -6.10831757 72.23612091 -6.64317322 72.77015686 C-8.73258904 74.66402699 -10.04334707 75.00565397 -12.875 75.375 C-16 75 -16 75 -17.8046875 73.12890625 C-20.87781855 68.74887428 -23.57446108 64.19348663 -26.25 59.5625 C-26.80429687 58.63373047 -27.35859375 57.70496094 -27.9296875 56.74804688 C-28.45304687 55.84248047 -28.97640625 54.93691406 -29.515625 54.00390625 C-29.99290039 53.18736572 -30.47017578 52.3708252 -30.96191406 51.52954102 C-32.20444749 48.50181551 -32.26552223 46.24473809 -32 43 C-30.43789797 40.5335231 -29.45768871 40.10839996 -26.625 39.4375 C-22.65180088 40.28889981 -21.12777917 42.76387903 -19 46 C-16.5884343 49.95718296 -14.26873639 53.95942625 -12 58 C-9.04956928 56.67472021 -7.0202968 55.25104837 -4.77954102 52.92724609 C-4.17533829 52.30675385 -3.57113556 51.6862616 -2.94862366 51.04696655 C-2.30686691 50.37920197 -1.66511017 49.71143738 -1.00390625 49.0234375 C0.37261475 47.6167645 1.7495815 46.2105276 3.12695312 44.8046875 C5.28930157 42.58646505 7.44752726 40.3646022 9.59790039 38.13476562 C11.67788265 35.98235563 13.7731397 33.84581368 15.87109375 31.7109375 C16.51082626 31.03912445 17.15055878 30.3673114 17.80967712 29.67514038 C22.33984834 25.09400253 22.33984834 25.09400253 25.94555664 24.58056641 C26.62352295 24.71897949 27.30148926 24.85739258 28 25 C21.20352824 13.31338393 12.30098292 6.38960592 0 1 C0 0.67 0 0.34 0 0 Z " fill="#FBAE21" transform="translate(373,395)"/>
<path d="M0 0 C16.68467355 -1.17314111 30.78513978 3.34256242 43.61328125 14.21484375 C55.31691397 25.17256968 62.84272746 38.7852228 63.46826172 54.92138672 C63.69686005 72.59379592 58.55324494 87.7625332 46.3762207 100.78613281 C38.55155582 108.74572829 26.59552099 116.61564744 15.1171875 117.12890625 C14.41851562 117.08636719 13.71984375 117.04382813 13 117 C15.47598036 114.42085379 18.07236997 112.10037556 20.8125 109.8125 C33.2558456 98.91591535 41.12213292 82.9809198 42.23828125 66.4765625 C42.60665501 47.35990336 37.20639209 31.32679792 24.5859375 16.57421875 C17.58183678 9.60185867 9.18747786 4.58155916 0 1 C0 0.67 0 0.34 0 0 Z " fill="#F3B2A6" transform="translate(252,250)"/>
<path d="M0 0 C4.99336232 2.9523492 9.06111383 6.85269641 11.6796875 12.08984375 C12.3760626 19.51023419 12.25242206 25.96326735 7.6796875 32.08984375 C1.76972366 37.70430939 -3.04123524 38.60359084 -11.05078125 38.46875 C-17.38117132 37.73512057 -20.87568465 34.904889 -24.7578125 30.02734375 C-27.63278837 24.62238912 -28.12866601 19.13887114 -27.3203125 13.08984375 C-22.78836955 2.07026463 -11.6378387 -4.5650108 0 0 Z " fill="#E7E2EB" transform="translate(96.3203125,210.91015625)"/>
<path d="M0 0 C2 2 2 2 2.625 5.25 C1.90822981 9.55062112 1.90822981 9.55062112 -1.0625 11.8125 C-2.69115802 12.90114442 -4.34024617 13.95937959 -6 15 C-8.38424517 16.52766445 -10.75721945 18.07194942 -13.125 19.625 C-14.08708374 20.25559326 -14.08708374 20.25559326 -15.06860352 20.89892578 C-22.22446889 25.67777776 -28.64138667 31.22043942 -35 37 C-35.67417969 37.60199219 -36.34835938 38.20398438 -37.04296875 38.82421875 C-41.60109753 43.12250171 -45.32983993 48.12527197 -49.09448242 53.11474609 C-53.644965 59.07982274 -53.644965 59.07982274 -57 61 C-60.67293796 60.77962372 -62.36966546 60.63033454 -65 58 C-65.50286872 53.82618961 -65.34681724 51.60309369 -63.234375 47.9296875 C-62.41453125 46.92164063 -61.5946875 45.91359375 -60.75 44.875 C-60.30325928 44.32295898 -59.85651855 43.77091797 -59.39624023 43.20214844 C-57.95521746 41.44578545 -56.48456011 39.71967581 -55 38 C-54.51354004 37.4337793 -54.02708008 36.86755859 -53.52587891 36.28417969 C-46.94593412 28.70885762 -39.99442869 22.10012118 -32 16 C-31.05511719 15.25105469 -30.11023438 14.50210938 -29.13671875 13.73046875 C-23.83308773 9.60698344 -18.38624211 5.82288299 -12.625 2.375 C-10.94277344 1.36566406 -10.94277344 1.36566406 -9.2265625 0.3359375 C-5.53891647 -1.19090868 -3.77772094 -1.16488801 0 0 Z " fill="#000000" transform="translate(182,89)"/>
<path d="M0 0 C2.72810783 0.61635143 3.66373182 1.11502064 5.16772461 3.48974609 C5.79272461 6.17724609 5.79272461 6.17724609 5.16772461 9.48974609 C3.84309387 11.29090881 3.84309387 11.29090881 2.10449219 13.21264648 C1.46806793 13.91616241 0.83164368 14.61967834 0.17593384 15.34451294 C-2.96981827 18.70490568 -6.18583962 21.98615756 -9.44555664 25.23583984 C-10.1411821 25.93242203 -10.83680756 26.62900421 -11.55351257 27.34669495 C-13.00856885 28.80242608 -14.46486602 30.25691789 -15.92236328 31.71020508 C-18.15978434 33.94221877 -20.39175217 36.17958744 -22.62329102 38.41748047 C-24.04289193 39.83642144 -25.46280257 41.25505264 -26.88305664 42.67333984 C-27.88457512 43.67789467 -27.88457512 43.67789467 -28.90632629 44.70274353 C-29.52424545 45.31751053 -30.14216461 45.93227753 -30.77880859 46.56567383 C-31.3217305 47.10780014 -31.8646524 47.64992645 -32.42402649 48.20848083 C-34.54070438 50.13429511 -35.83291334 50.4898293 -38.70727539 50.86474609 C-41.83227539 50.48974609 -41.83227539 50.48974609 -43.63696289 48.61865234 C-46.71009394 44.23862037 -49.40673647 39.68323272 -52.08227539 35.05224609 C-52.63657227 34.12347656 -53.19086914 33.19470703 -53.76196289 32.23779297 C-54.28532227 31.33222656 -54.80868164 30.42666016 -55.34790039 29.49365234 C-55.82517578 28.67711182 -56.30245117 27.86057129 -56.79418945 27.01928711 C-58.03672288 23.9915616 -58.09779762 21.73448418 -57.83227539 18.48974609 C-56.27017336 16.0232692 -55.2899641 15.59814605 -52.45727539 14.92724609 C-48.48407627 15.77864591 -46.96005456 18.25362512 -44.83227539 21.48974609 C-42.4207097 25.44692905 -40.10101178 29.44917235 -37.83227539 33.48974609 C-34.88184467 32.1644663 -32.85257219 30.74079447 -30.61181641 28.41699219 C-30.00761368 27.79649994 -29.40341095 27.17600769 -28.78089905 26.53671265 C-28.1391423 25.86894806 -27.49738556 25.20118347 -26.83618164 24.51318359 C-25.45966064 23.1065106 -24.08269389 21.70027369 -22.70532227 20.29443359 C-20.54297382 18.07621115 -18.38474813 15.85434829 -16.234375 13.62451172 C-14.15439275 11.47210172 -12.05913569 9.33555977 -9.96118164 7.20068359 C-9.32144913 6.52887054 -8.68171661 5.8570575 -8.02259827 5.16488647 C-3.51646082 0.60805279 -3.51646082 0.60805279 0 0 Z " fill="#050401" transform="translate(398.832275390625,419.51025390625)"/>
<path d="M0 0 C19.01855307 8.80314214 43.27892968 27.11682091 53 46 C52.9375 49.75390625 52.9375 49.75390625 52 53 C49 55 49 55 45.6875 55.0390625 C40.78168133 53.65670258 39.02918268 51.30812448 36 47.375 C34.94699393 46.08326292 33.8923236 44.79288061 32.8359375 43.50390625 C32.34061523 42.88918457 31.84529297 42.27446289 31.33496094 41.64111328 C21.22278984 29.20987441 7.02728449 20.42014862 -6.43457031 12.06225586 C-8 11 -8 11 -10 9 C-10.375 5.5625 -10.375 5.5625 -10 2 C-6.93970878 -1.76651227 -4.42468883 -1.05046569 0 0 Z " fill="#000000" transform="translate(338,89)"/>
<path d="M0 0 C2.62179805 0.07446947 3.82099994 0.24247159 5.81835938 1.97753906 C7.34480342 3.99470187 8.67206386 6.0639567 9.984375 8.2265625 C11.01379504 9.79674446 12.04907575 11.36309799 13.08984375 12.92578125 C13.60981934 13.71388184 14.12979492 14.50198242 14.66552734 15.31396484 C22.26503987 26.395109 32.06635045 36.40800252 42.921875 44.2890625 C45.234375 46.6015625 45.234375 46.6015625 45.796875 50.2265625 C45.234375 53.6015625 45.234375 53.6015625 44.109375 55.5390625 C41.35659053 57.0989737 39.36143692 56.88165516 36.234375 56.6015625 C33.77734375 55.1328125 33.77734375 55.1328125 31.421875 53.1015625 C30.13410156 52.00328125 30.13410156 52.00328125 28.8203125 50.8828125 C27.54027344 49.75359375 27.54027344 49.75359375 26.234375 48.6015625 C25.44289062 47.93125 24.65140625 47.2609375 23.8359375 46.5703125 C16.06479333 39.88659806 9.74909355 32.1688982 3.546875 24.0390625 C2.99193359 23.32298828 2.43699219 22.60691406 1.86523438 21.86914062 C-6.83715303 10.4970553 -6.83715303 10.4970553 -6.640625 5.2890625 C-5.27879125 1.10628742 -4.38721355 0.70086192 0 0 Z " fill="#000000" transform="translate(116.765625,316.3984375)"/>
<path d="M0 0 C1.875 1.0625 1.875 1.0625 3 3 C3.62333233 8.87508634 2.19355445 12.14791771 -1.3125 16.6875 C-1.97995239 17.58553345 -1.97995239 17.58553345 -2.66088867 18.50170898 C-8.79213446 26.59375729 -15.81812671 33.84133147 -23 41 C-23.98613281 42.0209375 -23.98613281 42.0209375 -24.9921875 43.0625 C-35.2027717 53.56965718 -35.2027717 53.56965718 -41.25 54.5 C-44 54 -44 54 -45.875 52.9375 C-47.6618913 49.8600761 -47.36221629 47.49279996 -47 44 C-44.875 41.375 -44.875 41.375 -42 39 C-41.49597656 38.57050049 -40.99195313 38.14100098 -40.47265625 37.69848633 C-38.99818282 36.44607497 -37.49950218 35.22233356 -36 34 C-25.4056197 25.33364112 -17.29039351 14.84225855 -9.77734375 3.484375 C-6.95815238 -0.45629689 -4.69319328 -0.38311782 0 0 Z " fill="#000000" transform="translate(397,319)"/>
<path d="M0 0 C0 4 0 4 -2.01171875 6.11328125 C-2.89472656 6.83902344 -3.77773438 7.56476563 -4.6875 8.3125 C-8.90722285 11.92769518 -12.01908835 15.32990508 -15 20 C-15.85658203 18.90751953 -15.85658203 18.90751953 -16.73046875 17.79296875 C-29.02961814 2.6571825 -44.20786753 -5.70379906 -62 -13 C-44.51445854 -24.65702764 -16.03701173 -9.28169514 0 0 Z " fill="#4AB0F9" transform="translate(336,391)"/>
<path d="M0 0 C13.86 0 27.72 0 42 0 C42 13 42 13 41 15 C27.8 15 14.6 15 1 15 C-1.24103151 10.51793698 0 5.01109879 0 0 Z " fill="#9891A2" transform="translate(235,164)"/>
<path d="M0 0 C2.875 0.875 2.875 0.875 4.875 2.875 C4.88959285 4.94926882 4.89620056 7.02414834 4.84765625 9.09790039 C4.58479491 17.00386198 4.58479491 17.00386198 8.34765625 23.5859375 C11.1348682 25.29063229 13.84909864 26.65410625 16.875 27.875 C17.875 28.875 17.875 28.875 18.0625 32.3125 C17.875 35.875 17.875 35.875 15.875 37.875 C10.07873379 38.53238141 6.94768459 37.2040375 2.125 34.0625 C1.01640625 33.35480469 -0.0921875 32.64710938 -1.234375 31.91796875 C-5.53439892 28.87889779 -5.53439892 28.87889779 -7.125 26.875 C-7.76474583 23.09334836 -7.58826536 19.26716925 -7.5625 15.4375 C-7.58248047 14.38755859 -7.60246094 13.33761719 -7.62304688 12.25585938 C-7.62240234 11.24458984 -7.62175781 10.23332031 -7.62109375 9.19140625 C-7.62294678 8.26787354 -7.6247998 7.34434082 -7.62670898 6.39282227 C-6.73433595 1.9144558 -4.54676223 -0.18187049 0 0 Z " fill="#080708" transform="translate(424.125,205.125)"/>
<path d="M0 0 C10.82534321 3.01689893 20.65524039 8.48286058 27 18 C34.10480456 30.71160815 37.45156383 42.17024273 33.875 56.75 C31.38671321 64.5719756 27.11279606 71.34715594 22.61791992 78.14916992 C16.99288726 86.67106532 13.18691982 95.28203822 10 105 C8.68 105 7.36 105 6 105 C7.37578547 94.45746413 13.72563964 85.5547721 19.39624023 76.78369141 C27.5872814 64.03704057 30.60704732 52.26984858 28 37 C23.70967888 21.79510195 15.06771009 10.42373244 1.6875 2.12890625 C1.130625 1.75636719 0.57375 1.38382813 0 1 C0 0.67 0 0.34 0 0 Z " fill="#F6AB21" transform="translate(267,47)"/>
<path d="M0 0 C2.90336046 0.17078591 3.89654758 0.57365642 5.9375 2.6875 C7.51393484 5.02062356 8.87180707 7.38662424 10.1875 9.875 C10.826875 10.926875 11.46625 11.97875 12.125 13.0625 C13.44520116 16.55715014 13.43796935 18.35805494 12.1875 21.875 C10 23.875 10 23.875 7.1875 24.875 C3.27105379 24.10941809 1.59914936 23.3978642 -0.89453125 20.23046875 C-1.75111328 18.66232422 -1.75111328 18.66232422 -2.625 17.0625 C-3.20894531 16.02480469 -3.79289063 14.98710937 -4.39453125 13.91796875 C-6.26281859 9.90861382 -7.29353265 7.31809796 -5.875 3.0625 C-3.8125 0.875 -3.8125 0.875 0 0 Z " fill="#000000" transform="translate(214.8125,14.125)"/>
<path d="M0 0 C2.125 2.125 2.125 2.125 3 5 C2.23831049 9.2233978 1.37900868 10.7050535 -2.046875 13.37109375 C-3.27035068 14.07907483 -4.50528425 14.76756518 -5.75 15.4375 C-6.3584375 15.80037109 -6.966875 16.16324219 -7.59375 16.53710938 C-10.70230474 18.27404755 -12.74865878 19.01150506 -16.328125 18.84765625 C-19 18 -19 18 -21 16 C-21.625 12.75 -21.625 12.75 -21 9 C-18.6274393 6.51829001 -15.90715045 4.79992429 -13 3 C-12.175 2.38125 -11.35 1.7625 -10.5 1.125 C-6.68388732 -0.59225071 -4.17581043 -0.53881425 0 0 Z " fill="#000000" transform="translate(331,45)"/>
<path d="M0 0 C6.62831682 0.36960874 12.93719504 5.18719504 17.5 9.75 C17.875 13.1875 17.875 13.1875 17.5 16.75 C15.875 18.75 15.875 18.75 13.5 19.75 C8.77638882 19.34186929 5.34968851 17.89561419 1.25 15.5625 C-0.30460938 14.70591797 -0.30460938 14.70591797 -1.890625 13.83203125 C-5.02178715 11.33366385 -5.72532184 9.63888437 -6.5 5.75 C-5.22990803 1.57684069 -4.27794064 0.91670156 0 0 Z " fill="#000000" transform="translate(184.5,44.25)"/>
<path d="M0 0 C1.91015625 0.23046875 1.91015625 0.23046875 3.91015625 2.23046875 C5.08211113 9.26219804 2.47693753 13.63545272 -0.97265625 19.69140625 C-3.50410104 22.72727177 -5.24843898 23.46321081 -9.08984375 24.23046875 C-11.90234375 23.23046875 -11.90234375 23.23046875 -14.08984375 21.23046875 C-15.42312288 17.18322589 -15.23484034 15.55443456 -13.47265625 11.6171875 C-12.73698868 10.37393568 -11.98383178 9.14089118 -11.21484375 7.91796875 C-10.83714844 7.28568359 -10.45945312 6.65339844 -10.0703125 6.00195312 C-6.82834428 0.6198244 -6.37541031 0.12727679 0 0 Z " fill="#000000" transform="translate(299.08984375,14.76953125)"/>
<path d="M0 0 C0.70125 0.00515625 1.4025 0.0103125 2.125 0.015625 C2.82625 0.01046875 3.5275 0.0053125 4.25 0 C6.125 0.265625 6.125 0.265625 8.125 2.265625 C9.34455271 5.69124757 9.29164209 9.09470641 9.3125 12.703125 C9.32667969 13.81558594 9.34085937 14.92804687 9.35546875 16.07421875 C9.12521191 19.26269055 8.58808254 21.43699875 7.125 24.265625 C4.32629973 25.66497513 2.22001208 25.51827905 -0.875 25.265625 C-3.03722661 23.67408702 -3.78432618 22.78796564 -4.24731445 20.12084961 C-4.2443335 19.31139893 -4.24135254 18.50194824 -4.23828125 17.66796875 C-4.23763672 16.78431641 -4.23699219 15.90066406 -4.23632812 14.99023438 C-4.22021484 14.07048828 -4.20410156 13.15074219 -4.1875 12.203125 C-4.19072266 11.27951172 -4.19394531 10.35589844 -4.19726562 9.40429688 C-4.1263986 0.58457313 -4.1263986 0.58457313 0 0 Z " fill="#000000" transform="translate(253.875,3.734375)"/>
<path d="M0 0 C1.98 0 3.96 0 6 0 C6 13.53 6 27.06 6 41 C4.02 41 2.04 41 0 41 C0 27.47 0 13.94 0 0 Z " fill="#DEAD30" transform="translate(253,112)"/>
<path d="M0 0 C8.58 0 17.16 0 26 0 C26 1.98 26 3.96 26 6 C23.46945663 8.53054337 22.56451118 8.25683229 19.0625 8.265625 C18.08539063 8.26820313 17.10828125 8.27078125 16.1015625 8.2734375 C15.07804687 8.26570312 14.05453125 8.25796875 13 8.25 C11.97648438 8.25773438 10.95296875 8.26546875 9.8984375 8.2734375 C8.92132813 8.27085937 7.94421875 8.26828125 6.9375 8.265625 C6.03902344 8.26336914 5.14054688 8.26111328 4.21484375 8.25878906 C2 8 2 8 0 6 C0 4.02 0 2.04 0 0 Z " fill="#857F8E" transform="translate(243,191)"/>
<path d="M0 0 C13.86 0 27.72 0 42 0 C42 13 42 13 41 15 C39.35 15 37.7 15 36 15 C36 10.38 36 5.76 36 1 C24.45 1 12.9 1 1 1 C1 4.96 1 8.92 1 13 C0.67 13 0.34 13 0 13 C0 8.71 0 4.42 0 0 Z " fill="#68636F" transform="translate(235,164)"/>
<path d="M0 0 C2.97 0.495 2.97 0.495 6 1 C5.47622982 6.31932828 4.22571631 10.27725863 1.8125 15.125 C0.95591797 16.89230469 0.95591797 16.89230469 0.08203125 18.6953125 C-2.2746193 22.43588729 -4.49311273 24.37107461 -8 27 C-7.37065754 23.11787627 -6.17326521 19.89250933 -4.5625 16.3125 C-2.25642474 10.93387938 -0.85642644 5.77768286 0 0 Z " fill="#DBD4E1" transform="translate(461,235)"/>
<path d="M0 0 C1.32 0 2.64 0 4 0 C5.75734451 4.97361654 7.32584613 9.7415998 8 15 C4.52308771 14.70197895 2.98487704 13.9882377 0.1875 11.8125 C-2 9 -2 9 -2.4375 5.875 C-2 3 -2 3 0 0 Z " fill="#EEB934" transform="translate(233,82)"/>
<path d="M0 0 C1.32 0 2.64 0 4 0 C6.37358694 3.56038041 6.73959381 4.80896839 6 9 C3.93463919 11.37813085 1.65493056 13.30613028 -1 15 C-1.66 15 -2.32 15 -3 15 C-2.88529863 13.24929483 -2.75780972 11.49942464 -2.625 9.75 C-2.55539062 8.77546875 -2.48578125 7.8009375 -2.4140625 6.796875 C-2.01534751 4.10366811 -1.36492937 2.33036721 0 0 Z " fill="#EFBA34" transform="translate(275,82)"/>
<path d="M0 0 C8.58 0 17.16 0 26 0 C26 1.98 26 3.96 26 6 C24 8 24 8 21.75341797 8.22705078 C20.84221191 8.21657715 19.93100586 8.20610352 18.9921875 8.1953125 C18.00605469 8.18886719 17.01992188 8.18242187 16.00390625 8.17578125 C14.45509766 8.15064453 14.45509766 8.15064453 12.875 8.125 C11.83472656 8.11597656 10.79445312 8.10695312 9.72265625 8.09765625 C7.14820908 8.07403747 4.57421788 8.04110149 2 8 C2 7.67 2 7.34 2 7 C7.94 7 13.88 7 20 7 C20 5.02 20 3.04 20 1 C13.73 1 7.46 1 1 1 C1 2.65 1 4.3 1 6 C0.67 6 0.34 6 0 6 C0 4.02 0 2.04 0 0 Z " fill="#5A5661" transform="translate(243,191)"/>
</svg>
